# xmcd
#
# Track frame offsets:
#	225
#	12275
#	18637
#	26747
#	41454
#	49208
#	68182
#	83971
#	97171
#	151853
#
# Disc length: 2170 seconds
#
# Revision: 0
# Processed by: cddbd v1.5.2PL0 Copyright (c) Steve Scherf et al.
# Submitted via: EasyCDDAExtractor 2011.0.0.0
#
DISCID=7d08770a
DTITLE=All Capone Štrajh Trio - 1 tema 1000 pristopov
DYEAR=1900
DGENRE=
TTITLE0=Pristop music suite
TTITLE1=Tema
TTITLE2=Waltz
TTITLE3=Tango
TTITLE4=Slow
TTITLE5=Marš
TTITLE6=Bossa
TTITLE7=Love Me Tender
TTITLE8=Roll Over Elise
TTITLE9=Adamsovi v Sloveniji
EXTD=
EXTT0=
EXTT1=
EXTT2=
EXTT3=
EXTT4=
EXTT5=
EXTT6=
EXTT7=
EXTT8=
EXTT9=
PLAYORDER=
